<svg xmlns="http://www.w3.org/2000/svg" viewBox="0 0 507.05 544.67" class="lonewolf-ico"><g id="lonewolf-ico-layer" class="lonewolf-ico-layer" data-name="Lone Wolf"><path d="M506.94,366.87c-.47-3.7-6.67-4.5-10.58-5.78-1.2-.4-2.34-.78-3.31-1.21-34.74-15.12-62.07-52.67-83.58-82.52-2.07-2.88-4.17-5.74-6.13-8.69,0,0-9.95-64.67-49.33-91.33-18.46-12.5-26.64-18-29.94-20.15,1.54-3.69,34.75-84.25,12.61-129.19-14,20.67-36,46-36,46s-33.33,12-38,28.67,16.67-64-24-102.67c0,0-12,54-56.67,73.33S142.67,136,142.67,136s-46,7.67-104.67,75c35.33-15.33,53.33-16.33,53.33-16.33S33.33,233.33,0,308c19.33-16.67,32-22,32-22,1.93-2-36.93,47.29,14.33,184,15.33-58,48.33-90,48.33-90s-1.33,98.67,86.67,164.67C122,407.33,194.67,314,194.67,314l-38-16,42-30.67L172,228.67,241.33,242l-24.67-42c-.12-.2,17.61-1.87,18-1.92a181.27,181.27,0,0,1,20.08-1.28,165.17,165.17,0,0,1,30.81,1.88,104.31,104.31,0,0,1,34.66,12.49c15,8.63,30.86,18,40.37,33,3,4.76,5.13,10,7.62,15a72.55,72.55,0,0,0,7.86,13.23c1.55,2,3.22,3.86,4.92,5.72q1.64,1.79,3.31,3.55a1.25,1.25,0,0,0,.3.22,17.15,17.15,0,0,0,3.37.65,10.17,10.17,0,0,1-3.37-.65c-5.48-1.6-10.17-5.72-14-9.79a79.4,79.4,0,0,1-10.18-13.93c-1.81-3.07-3.19-6.38-5-9.48a35.71,35.71,0,0,0-6.86-8.3c-1.4-1.32-2.81-2.63-4.25-3.91a103.71,103.71,0,0,0-8.77-7.07,78.6,78.6,0,0,0-19.19-9.94,157.73,157.73,0,0,0-39-8q-4.35-.38-8.72-.48c-2.55-.06-5.38.35-7.9,0-1.06-.15-2.13-.26-3.2-.3-.7,0-7.61,0-7.34.83a23,23,0,0,0,2.32,5.09l12.83,28.15a91.93,91.93,0,0,0,4.41,10.59c.38.74,2.6,6.47,3.46,6.67l-64-14.67,22.67,28-30,21.33,26,10.67S161.33,404,225.33,544.67c-8-78,32-122,32-122S254.67,472,292.67,504c-10.51-22.05-12.8-45.23-3.57-67.87,17.8-43.62,74.09-.39,103.3.85,20.84.89,46.63,1.95,66.53-5.16,9.34-3.33,20.44-10.9,25.88-19.42C490.84,402.95,508.6,380,506.94,366.87ZM238,128a66.43,66.43,0,0,0-24.17,1.07c-15.81,2.75-38.16,11.59-38.16,11.59s8.39-25.3,9.93-28c6.77-12.07,16.31-19.52,26.54-28.32C226.7,71.77,237.64,55,245,37.34,258.33,76.67,238,128,238,128Zm87.29,156.07c-19.85-13.06-16.17-22.14-16.17-22.14l-20.6-13.29c7.56-.36,15.15-.43,22.72-.28,9.55.19,17.77-1.13,26.48,3.4a34.41,34.41,0,0,1,7.55,5.58,70.56,70.56,0,0,1,6.1,8.31c3.29,5.32,4.34,7.34,9.35,12.39,2.76,2.78,9.17,6.12,12.27,8.53C373,286.57,347.07,295.58,325.29,284.07Z"/></g></svg>