<svg xmlns="http://www.w3.org/2000/svg" viewBox="0 0 300 300"><defs><style>.cls-1{fill:#e54045;}.cls-2{fill:#fff;fill-rule:evenodd;}</style></defs><title>Asset 1</title><g id="Layer_2" data-name="Layer 2"><g id="Layer_1-2" data-name="Layer 1"><rect class="cls-1" width="300" height="300"/><g id="ZMnrQc.tif"><path class="cls-2" d="M218.75,106.78l-44.42-5.4c.42-18.24.61-34.22.3-45.23-.15-5.37-3-8.42-7-8.49-7.61-.14-23-.37-30.19-.51-3.53-.06-5.8,2.4-5.67,6.93.28,9.8.34,24.74.31,42.16L87,90.75C80.9,90,77,93.56,76.51,99l-2,23.07c-.39,4.5,2,7.93,6.61,8.49l50.82,6.16c-.07,11.11-.15,22.41-.22,33.4-13.95,2.7-27,5.24-37.05,7.27-4.65.94-6.71,5.88-5.89,11.8l3.18,23c.63,4.58,3.85,7.19,8.69,6.21,8.5-1.71,19.28-3.82,30.9-6.07,0,13.79.08,25.46.3,33.42.12,4.2,5,6.55,7.77,6.6l23.66.47c4.89.1,8.33-3.21,8.16-9.23-.28-10-.18-23.58.11-39,13.42-2.6,25.91-5,35.38-6.94,4.6-.93,6.7-4.64,5.95-9.22L209,164.93c-.92-5.56-5.14-8.91-11.19-7.69-7.5,1.51-16.09,3.21-25.17,5,.2-6.8.4-13.66.6-20.47L216,146.94c4.86.59,7.84-2.17,8.11-6.65l1.35-22.51C225.85,112,223.43,107.35,218.75,106.78Z"/></g></g></g></svg>