<svg xmlns="http://www.w3.org/2000/svg" style="display: none;">
  
    <symbol id="lcx-ico-clear" viewBox="0 0 512 512">
      <path d="m239 393l90-103l-205 0l-90 103z m270-288c3 6 4 13 3 19c-1 7-4 13-9 18l-238 273c-7 8-16 12-26 12l-205 0c-7 0-13-2-18-6c-6-3-10-8-13-14c-3-6-4-13-3-19c1-7 4-13 9-18l238-273c7-8 16-12 26-12l205 0c7 0 13 2 18 6c6 3 10 8 13 14z"/>
    </symbol>
  
    <symbol id="lcx-ico-emoji" viewBox="0 0 512 512">
      <path d="m361 307c-7 23-21 42-40 56-19 14-41 21-65 21-24 0-46-7-65-21-19-14-33-33-40-56-1-5-1-9 2-14 2-4 5-7 10-9 5-1 10-1 14 1 5 3 8 6 9 11 5 16 14 28 27 37 13 10 27 14 43 14 16 0 30-4 43-14 13-9 22-21 27-37 1-5 4-8 9-11 4-2 9-2 14-1 5 2 8 5 10 9 3 5 3 9 2 14z m-142-124c0 10-3 19-10 26-7 7-16 10-26 10-10 0-19-3-26-10-7-7-11-16-11-26 0-10 4-19 11-26 7-7 16-11 26-11 10 0 19 4 26 11 7 7 10 16 10 26z m147 0c0 10-4 19-11 26-7 7-16 10-26 10-10 0-19-3-26-10-7-7-10-16-10-26 0-10 3-19 10-26 7-7 16-11 26-11 10 0 19 4 26 11 7 7 11 16 11 26z m73 73c0-25-5-48-15-71-9-23-22-42-39-58-16-17-35-30-58-39-23-10-46-15-71-15-25 0-48 5-71 15-23 9-42 22-58 39-17 16-30 35-39 58-10 23-15 46-15 71 0 25 5 48 15 71 9 23 22 42 39 58 16 17 35 30 58 39 23 10 46 15 71 15 25 0 48-5 71-15 23-9 42-22 58-39 17-16 30-35 39-58 10-23 15-46 15-71z m36 0c0 40-9 77-29 110-20 34-46 60-80 80-33 20-70 29-110 29-40 0-77-9-110-29-34-20-60-46-80-80-20-33-29-70-29-110 0-40 9-77 29-110 20-34 46-60 80-80 33-20 70-29 110-29 40 0 77 9 110 29 34 20 60 46 80 80 20 33 29 70 29 110z"/>
    </symbol>
  
    <symbol id="lcx-ico-send" viewBox="0 0 512 512">
      <path d="m504 3c6 5 9 11 8 18l-73 439c-1 6-4 10-10 13-2 2-5 2-8 2-3 0-5 0-7-1l-130-53-69 84c-3 5-8 7-14 7-2 0-4 0-6-1-4-1-7-4-9-7-2-3-3-6-3-10l0-100 247-303-306 265-113-47c-7-2-10-7-11-15 0-8 3-14 9-17l476-274c2-2 5-3 9-3 4 0 7 1 10 3z"/>
    </symbol>
  
    <symbol id="lcx-ico-edit" viewBox="0 0 512 512">
      <path d="m455 150l-93-93c-5-5-14-5-20 0l-253 254l1 0l-1 0l-35 130l0 0c-2 4 0 10 3 14c5 4 11 5 16 2l0 0l128-34l0 0l0 0l254-254c5-5 5-14 0-19z m-359 265l21-76l56 56z"/>
    </symbol>
  
    <symbol id="lcx-ico-bold" viewBox="0 0 512 512">
      <path d="m213 435c15 6 28 9 40 9 72 0 108-32 108-96 0-22-4-39-12-51-5-9-11-16-17-22-7-5-13-10-20-13-6-3-14-5-23-7-9-2-17-3-24-3-7 0-16-1-27-1-14 0-23 1-29 3 0 10 0 26 0 46 0 20 0 35 0 45 0 1 0 8 0 19 0 11 0 21 0 28 0 7 0 15 1 24 1 8 2 15 3 19z m-4-214c8 2 19 2 32 2 15 0 29-1 40-3 12-3 23-7 32-13 9-6 16-15 21-26 5-11 7-24 7-40 0-13-2-25-8-35-5-10-13-18-22-24-10-5-20-9-31-12-11-3-23-4-36-4-9 0-22 1-37 4 0 9 1 24 1 43 1 19 1 34 1 43 0 5 0 13 0 23 0 10 0 18 0 23 0 8 0 15 0 19z m-154 254l0-26c3-1 11-3 25-5 13-2 23-5 30-8 1-2 3-5 4-7 1-3 1-6 2-10 1-4 1-7 2-9 0-3 0-7 0-11 1-4 1-8 2-10l0-18c0-187-2-285-6-293-1-2-3-3-7-4-3-2-7-3-12-4-5 0-10-1-15-2-4 0-9 0-13-1-5 0-8-1-9-1l-1-23c18-1 51-2 97-4 46-2 81-2 106-2 5 0 11 0 20 1 9 1 15 1 19 1 14 0 27 2 39 4 13 3 25 7 37 12 12 6 22 12 31 20 9 8 16 18 21 30 5 12 8 25 8 40 0 9-2 19-5 27-3 8-7 15-11 20-4 6-10 11-18 17-8 5-15 10-21 13-6 3-14 7-24 11 29 7 54 20 73 38 20 19 29 43 29 71 0 19-3 36-10 52-6 15-15 27-26 37-11 10-25 18-40 24-15 7-30 11-46 14-16 3-33 4-51 4-8 0-21 0-37-1-17 0-30-1-38-1-20 0-50 1-88 4-38 2-60 3-66 3z"/>
    </symbol>
  
    <symbol id="lcx-ico-italic" viewBox="0 0 512 512">
      <path d="m110 475l5-24c1-1 8-3 23-7 14-3 25-7 32-10 5-7 9-17 11-29 1-1 7-29 18-83 12-53 23-105 33-155 10-50 15-78 15-85l0-7c-5-2-10-4-16-5-6-1-12-2-20-2-7-1-13-1-16-2l5-29c6 0 18 1 34 1 17 1 31 2 43 2 12 1 23 1 34 1 10 0 19 0 29-1 9 0 21-1 34-2 14 0 23-1 28-1-1 7-2 15-5 25-6 2-16 5-29 8-14 4-24 7-31 10-2 3-3 7-4 12-1 4-2 8-3 11 0 3-1 8-2 13-1 6-1 10-2 12-5 28-13 68-25 120-11 52-19 86-22 102 0 1-1 7-4 16-2 10-4 18-5 26-2 8-4 16-5 24-1 8-2 13-2 16l1 5c3 1 21 4 53 9-1 9-3 18-5 29-2 0-5 0-9 0-4 0-7 0-10 0-5 0-13-1-24-2-11-2-20-3-25-3-26-1-46-1-59-1-10 0-23 1-41 3-17 1-29 2-34 3z"/>
    </symbol>
  
    <symbol id="lcx-ico-list" viewBox="0 0 512 512">
      <path d="m110 402c0 16-6 28-16 39-11 11-24 16-39 16-15 0-28-5-39-16-11-11-16-23-16-39 0-15 5-28 16-39 11-10 24-16 39-16 15 0 28 6 39 16 10 11 16 24 16 39z m0-146c0 15-6 28-16 39-11 11-24 16-39 16-15 0-28-5-39-16-11-11-16-24-16-39 0-15 5-28 16-39 11-11 24-16 39-16 15 0 28 5 39 16 10 11 16 24 16 39z m402 119l0 55c0 2-1 4-3 6-2 2-4 3-6 3l-348 0c-2 0-4-1-6-3-2-2-3-4-3-6l0-55c0-3 1-5 3-7 2-1 4-2 6-2l348 0c2 0 4 1 6 2 2 2 3 4 3 7z m-402-265c0 15-6 28-16 39-11 10-24 16-39 16-15 0-28-6-39-16-11-11-16-24-16-39 0-16 5-28 16-39 11-11 24-16 39-16 15 0 28 5 39 16 10 11 16 23 16 39z m402 119l0 54c0 3-1 5-3 7-2 2-4 3-6 3l-348 0c-2 0-4-1-6-3-2-2-3-4-3-7l0-54c0-3 1-5 3-7 2-2 4-3 6-3l348 0c2 0 4 1 6 3 2 2 3 4 3 7z m0-147l0 55c0 3-1 5-3 7-2 1-4 2-6 2l-348 0c-2 0-4-1-6-2-2-2-3-4-3-7l0-55c0-2 1-4 3-6 2-2 4-3 6-3l348 0c2 0 4 1 6 3 2 2 3 4 3 6z"/>
    </symbol>
  
    <symbol id="lcx-ico-file" viewBox="0 0 512 512">
      <path d="m456 109c5 5 10 12 14 21 4 9 5 18 5 25l0 330c0 7-2 14-8 19-5 5-11 8-19 8l-384 0c-8 0-14-3-19-8-6-5-8-12-8-19l0-458c0-7 2-14 8-19 5-5 11-8 19-8l256 0c8 0 16 2 25 6 9 4 17 8 22 13z m-127-70l0 107 108 0c-2-5-4-9-7-11l-89-90c-2-2-6-4-12-6z m110 436l0-292-119 0c-8 0-14-3-19-8-6-5-8-12-8-20l0-118-220 0 0 438z m-37-128l0 92-292 0 0-55 55-55 36 37 110-110z m-237-54c-16 0-29-6-39-16-11-11-16-24-16-39 0-16 5-28 16-39 10-11 23-16 39-16 15 0 28 5 38 16 11 11 16 23 16 39 0 15-5 28-16 39-10 10-23 16-38 16z"/>
    </symbol>
  
    <symbol id="lcx-ico-header" viewBox="0 0 512 512">
      <path d="m481 475c-9 0-21 0-38-1-17 0-30-1-38-1-9 0-21 1-38 1-17 1-29 1-38 1-4 0-8-2-10-5-3-4-4-9-4-13 0-6 1-11 5-14 3-2 7-4 11-4 4-1 9-1 14-2 6-1 10-3 13-5 7-4 10-17 10-40l-1-111c0-4 0-7 0-9-2-1-7-1-14-1l-193 0c-7 0-12 0-15 1 0 2 0 5 0 9l0 106c0 27 3 42 10 46 3 2 8 4 14 4 6 1 12 1 16 1 5 0 9 2 13 4 4 3 6 8 6 13 0 5-1 10-4 14-2 4-5 6-10 6-9 0-22 0-40-1-17 0-31-1-39-1-9 0-21 1-37 1-16 1-28 1-36 1-5 0-8-2-10-6-3-4-4-8-4-12 0-6 1-10 4-13 3-3 7-5 11-5 4-1 8-1 13-2 5-1 9-3 12-5 7-4 10-18 10-41l-1-16 0-232c0-1 0-3 0-8 0-4 0-7 0-10 0-3 0-6 0-11-1-5-1-9-1-12 0-3-1-7-2-10-1-4-2-7-3-9-1-3-3-4-5-6-3-1-7-3-13-3-5 0-10-1-15-1-4 0-8-1-11-4-4-2-6-7-6-12 0-5 2-10 4-14 2-4 6-6 10-6 9 0 22 0 40 1 17 0 31 1 39 1 8 0 20-1 36-1 17-1 29-1 37-1 4 0 8 2 10 6 3 4 4 9 4 14 0 5-2 9-5 12-3 3-7 4-11 4-4 0-9 1-14 1-5 1-10 2-12 4-7 4-10 19-10 46l0 91c0 4 0 7 0 9 3 1 6 1 11 1l200 0c5 0 8 0 11-1 0-2 0-5 0-9l0-91c0-27-3-42-10-46-3-2-9-3-16-4-8 0-14-1-19-3-5-2-7-7-7-14 0-5 1-10 3-14 3-4 6-6 11-6 8 0 21 0 38 1 16 0 29 1 37 1 8 0 21-1 37-1 17-1 29-1 37-1 5 0 8 2 11 6 2 4 3 9 3 14 0 5-1 9-5 12-3 3-7 4-11 4-4 0-9 1-15 1-5 1-10 2-12 4-7 4-10 19-10 46l0 269c0 23 3 36 10 40 3 2 7 3 13 4 5 1 11 1 15 1 4 0 8 2 12 5 3 2 5 7 5 12 0 5-1 10-3 14-3 4-6 6-11 6z"/>
    </symbol>
  
    <symbol id="lcx-ico-rtl" viewBox="0 0 512 512">
      <path d="m256 37c40 0 77 9 110 29 34 20 60 46 80 80 20 33 29 70 29 110 0 40-9 77-29 110-20 34-46 60-80 80-33 20-70 29-110 29-40 0-77-9-110-29-34-20-60-46-80-80-20-33-29-70-29-110 0-40 9-77 29-110 20-34 46-60 80-80 33-20 70-29 110-29z m78 148c0 1-1 2-2 3-2 2-3 3-4 3 0 0 1-1 1-2 0-1 1-2 1-3 1-1 1-2 1-2 2-1 4-2 7-4 2-1 7-2 15-3 6-2 11-1 14 3 0-1 1-2 3-4 2-2 3-3 4-3 1-1 2-1 4-2 3 0 4-1 5-2l0-6c-2 0-4-1-5-2-1-2-2-4-2-6 0 0 0 1-1 2 0-1-1-2-2-2-1 0-2 0-3 0-1 1-2 1-3 0-1 0-3-1-4-2-1-1-2-2-2-4-1-3-1-4-1-5-1-1-2-2-3-3-1-1-2-2-3-3 0 0 0-1 0-1-1-1-1-2-1-2-1-1-1-1-1-2-1 0-1 0-2 0-1 0-1 0-2 1-1 1-1 2-2 3-1 1-1 1-1 1-1 0-2 0-2 0-1 0-1 0-1 0-1 0-1 1-2 1 0 0-1 1-1 1-1 0-2 1-3 1-1 0-1 0-2 0 3-1 3-2 0-3-2 0-4-1-5-1 2 0 3-1 2-3 0-2-1-3-2-4l1 0c0-1-1-2-2-2-2-1-3-2-5-3-2-1-3-1-4-2-1-1-5-1-10-2-5-1-8-1-9 0-1 1-1 2-1 3 0 0 0 2 1 4 1 1 1 3 1 3 0 1 0 3-2 4-1 1-2 2-2 3 0 2 2 3 4 5 3 1 4 3 3 6 0 1-2 3-4 4-3 2-4 3-5 4-1 1-1 3 0 5 0 2 1 4 3 5 0 0 0 1 0 1 0 0 0 1-1 1 0 1-1 1-1 1-1 1-2 1-2 1l-1 1c-2 1-4 0-6-2-2-2-3-4-4-7-1-5-3-8-4-9-5-1-8-1-9 1-1-3-5-5-11-8-5-2-11-2-17-1 1 0 1-2 0-4-1-3-3-4-5-4 0-1 1-3 1-5 0-2 0-3 0-4 1-2 2-4 3-6 1 0 1-1 2-3 2-1 2-2 3-3 1-2 1-2 2-2 6 1 11 0 14-3 1-1 2-3 3-5 1-2 2-4 3-5 2-1 3-2 4-2 1 1 2 1 4 2 2 1 3 1 4 1 3 1 5 0 5-3 0-2-1-4-2-5 2 0 2-2 1-5-1-2-2-2-3-3-2-1-5 0-7 2-2 0-2 1 0 2 0 0-1 1-3 3-1 2-3 4-4 5-2 1-3 1-5-2 0 0-1-1-1-3-1-3-2-4-3-4-2 0-3 1-5 4 1-2 0-3-3-4-3-2-5-2-7-3 4-2 3-4-2-7-1-1-3-2-6-2-2 0-4 0-5 1-1 2-2 3-2 4 0 1 0 1 1 2 1 1 2 1 3 2 1 0 2 0 4 1 1 0 2 0 2 1 3 1 4 3 2 4 0 0-1 0-2 1-1 0-2 0-3 1-1 0-2 1-2 1-1 1-1 2 0 4 1 2 0 3-1 4-1-1-1-3-2-5-1-2-2-4-2-5 1 2-1 3-7 2l-3 0c-1 0-2 0-5 0-2 1-4 1-6 1-1-1-2-1-3-3-1-1-1-3 0-5 0-1 0-1 1-1-1-1-2-1-3-3-2-1-3-2-3-2-9 3-18 7-27 12 1 0 2 0 3-1 1 0 2-1 4-2 2 0 2-1 3-1 6-3 10-3 12-2l1-2c3 3 5 6 6 8-1-1-4-1-9-1-3 1-5 3-6 4 1 2 2 4 2 5-1-1-2-2-4-3-1-1-3-2-4-3-1-1-3-1-4-2-3 0-5 1-6 1-28 15-51 36-68 63 2 1 3 2 4 2 1 1 1 1 1 3 0 2 1 3 1 3 0 1 1 0 3-1 2 2 2 4 1 6 0 0 5 2 13 7 3 4 5 6 6 6 0 3-1 4-3 6 0-1-1-2-3-3-1-1-2-2-2-1-1 1-1 3 0 5 1 3 2 4 3 4-1 0-2 1-3 4 0 3-1 7-1 10 0 4 0 6 0 7l1 0c-1 3 0 6 1 10 2 5 4 6 6 6-2 0 0 5 6 12 1 2 2 3 2 3 1 0 2 1 4 2 2 1 3 2 4 3 1 1 2 2 3 3 1 1 2 3 3 6 1 3 2 6 4 7-1 1 0 3 3 6 2 2 3 4 3 6-1 0-1 0-1 0 0 1-1 1-1 1 1 1 2 2 5 4 2 1 3 2 4 3 0 1 0 2 1 3 0 2 0 3 0 3 1 1 2 1 3 1 0-4-2-10-7-18-3-4-5-7-5-8-1-1-1-2-2-4 0-2 0-4-1-5 1 0 1 1 2 1 1 0 1 0 2 1 1 0 2 1 2 1 1 0 1 1 1 1-1 1 0 3 1 5 1 2 2 4 3 5 1 2 3 3 5 6 2 2 3 3 3 3 1 1 3 3 4 6 2 2 2 4 0 4 2 0 4 1 6 3 2 1 4 3 5 5 1 2 2 4 2 8 1 3 1 5 2 7 0 1 1 2 2 3 1 2 2 3 4 3l4 2 4 2c1 1 3 2 5 3 3 2 5 3 6 4 2 0 4 1 5 1 1 0 2 0 4-1 2 0 3-1 4-1 3 0 5 1 8 4 3 4 5 6 6 6 7 4 12 5 16 4-1 0 0 0 0 2 0 1 1 2 2 4 1 2 2 3 3 4 1 1 1 2 1 3 1 1 3 2 6 4 2 2 4 3 5 4 1 0 2-1 2-2-1 1 0 3 2 5 2 3 3 4 5 3 3 0 4-3 4-9-6 3-11 1-14-5 0 0 0-1-1-2 0 0-1-1-1-2 0-1-1-2-1-2 0-1 0-2 0-3 0 0 1 0 2 0 1 0 2-1 3-1 0-1 0-2-1-4-1-2-1-3-1-4 0-1-1-3-3-5-2-3-3-4-4-5-1 2-2 3-4 3-2-1-4-1-5-3 0 0 0 1 0 2-1 0-1 1-1 1-2 0-4 0-4 0 0 0 0-2 1-5 0-3 0-5 1-6 0-1 0-2 1-4 1-1 2-3 2-4 1-1 1-2 2-3 0-2-1-2-2-3-1-1-2-1-5-1-3 0-6 2-7 6 0 0-1 1-1 3 0 1-1 2-1 3-1 1-2 2-3 2-1 1-4 1-7 1-3 0-5-1-7-2-2-1-4-4-6-8-2-4-3-8-3-11 0-1 0-4 1-7 0-3 1-6 1-7 0-2-1-4-2-7 1-1 2-2 3-3 1-1 2-2 3-3 0 0 0 0 1 0 0-1 1-1 1 0 1 0 1 0 1-1 1 0 1-1 1-2 0 0 0 0-1 0-1-1-1-1-1-1 1 0 4 0 8-1 4-1 7 0 8 1 3 2 5 2 6-1 0 0 0-1-1-3 0-1 0-2 0-3 1 5 4 6 9 2 0 1 2 1 4 2 2 0 4 0 5 1 1 0 1 1 2 2 1 0 1 1 2 1 0 0 0 0 1 0 1-1 1-1 2-2 2 3 3 5 4 7 2 7 4 12 5 12 2 1 3 1 3 1 1 0 2-1 2-3 0-1 0-3 0-4 0-1-1-2-1-3l0-3 0-5 0-2c-3-1-5-2-6-4 0-1 0-3 1-5 1-2 2-3 4-5 0 0 1-1 2-1 2-1 3-1 5-2 1-1 3-2 3-2 4-4 6-7 5-10 1 0 2-1 3-3 0 0-1 0-2-1 0 0-1-1-2-1 0-1-1-1-1-1 2-1 2-2 1-4 1-1 1-2 2-3 0-2 1-3 2-3 2 2 4 2 6 0 1-1 1-3 0-4 1-2 3-3 6-3 3-1 5-2 5-3 2 0 2 0 3-1 0 0 0-1 0-3 0-2 0-3 1-3 0-1 2-2 4-3 2-1 3-1 4-1l5-4c0 0 0-1 0-1 3 1 6 0 8-3 2-2 2-4-1-6 0-1 0-2-1-2-1-1-3-1-4-2 0 0 1 0 3 0 1 0 2 0 3 0 3-2 2-4-2-5-3-1-7 0-12 3z m-46 251c39-7 72-25 100-54-1-1-2-1-4-1-1-1-3-1-3-1-4-2-6-2-7-3 0-1 0-2-1-3 0-1-1-2-2-3-1 0-2-1-4-2-1-1-2-2-3-2 0-1-1-1-2-2-1-1-1-1-2-1 0-1-1-1-2-2-1 0-2 0-2 0-1 0-2 0-3 0l-1 0c-1 0-1 1-2 1 0 0-1 1-1 1-1 0-1 0-1 1 0 0 0 0 0 0-4-3-8-5-11-6-1 0-2-1-3-1-1-1-2-2-3-2-1-1-2-1-3-1-1 0-2 1-3 2-1 1-1 3-2 4 0 2 0 4 0 4-1-1-1-2 0-5 1-2 1-4 0-5 0-1-1-2-3-1-1 0-2 0-3 1-1 0-2 1-3 2-2 1-2 2-3 2 0 0-1 1-2 2-2 1-2 1-3 2 0 1-1 2-1 3-1 2-1 3-2 3 0 0-1-1-3-1-2-1-3-1-3-2 1 2 1 5 1 10 1 5 1 8 2 11 1 6 0 10-4 14-5 4-8 8-8 11-1 4 0 7 3 7 0 2 0 4-2 6-1 3-2 5-2 6 0 2 0 3 1 5z"/>
    </symbol>
  
    <symbol id="lcx-ico-link" viewBox="0 0 512 512">
      <path d="m434 347c0-7-2-14-8-19l-59-59c-5-6-12-8-20-8-8 0-14 3-20 9 0 0 2 2 5 5 3 3 5 5 6 6 1 1 3 3 5 6 2 2 3 4 3 7 1 2 1 5 1 8 0 7-2 14-8 19-5 5-11 8-19 8-3 0-5 0-8-1-2-1-5-2-7-4-3-1-4-3-6-4-1-1-3-3-6-6-3-3-4-5-5-5-6 5-9 12-9 20 0 8 2 15 8 20l58 59c6 5 12 8 20 8 7 0 14-3 19-8l42-41c6-6 8-12 8-20z m-201-201c0-8-2-14-8-19l-58-60c-6-5-12-8-20-8-7 0-14 3-19 8l-42 42c-6 5-8 12-8 19 0 8 2 14 8 19l59 60c5 5 12 8 20 8 8 0 14-3 20-9 0-1-2-3-5-6-3-3-5-5-6-6-1-1-3-3-5-5-2-3-3-5-3-7-1-3-1-5-1-8 0-8 2-14 8-20 5-5 11-8 19-8 3 0 5 1 8 1 2 1 5 2 7 4 3 2 4 3 6 4 1 1 3 3 6 6 3 3 4 5 5 6 6-6 9-13 9-21z m256 201c0 23-8 43-24 58l-42 42c-16 16-35 24-58 24-23 0-43-8-58-24l-59-60c-16-15-24-35-24-58 0-23 8-43 25-59l-25-25c-16 16-36 25-59 25-23 0-43-8-59-24l-59-60c-16-16-24-35-24-58 0-23 8-42 24-58l42-42c16-16 35-23 58-23 23 0 43 8 58 24l59 59c16 16 24 35 24 58 0 23-8 43-25 60l25 25c16-17 36-25 59-25 23 0 43 8 59 24l59 59c16 16 24 36 24 58z"/>
    </symbol>
  
    <symbol id="lcx-ico-code" viewBox="0 0 512 512">
      <path d="m158 400l-14 14c-2 2-4 3-7 3-2 0-5-1-6-3l-134-133c-1-2-2-4-2-7 0-2 1-4 2-6l134-133c1-2 4-3 6-3 3 0 5 1 7 3l14 14c2 2 3 4 3 6 0 3-1 5-3 7l-112 112 112 113c2 1 3 4 3 6 0 3-1 5-3 7z m169-305l-107 369c0 2-2 4-4 5-2 2-5 2-7 1l-18-5c-2-1-4-2-5-4-1-2-2-5-1-7l107-369c0-3 2-4 4-6 2-1 5-1 7 0l18 4c2 1 4 3 5 5 1 2 2 4 1 7z m188 186l-134 133c-1 2-4 3-6 3-3 0-5-1-7-3l-14-14c-2-2-3-4-3-7 0-2 1-5 3-6l112-113-112-112c-2-2-3-4-3-7 0-2 1-4 3-6l14-14c2-2 4-3 7-3 2 0 5 1 6 3l134 133c1 2 2 4 2 6 0 3-1 5-2 7z"/>
    </symbol>
  
    <symbol id="lcx-ico-login" viewBox="0 0 512 512">
      <path d="m375 256c0 5-2 9-6 13l-155 155c-4 4-8 6-13 6-5 0-9-2-13-6-3-3-5-8-5-13l0-82-128 0c-5 0-9-2-13-5-4-4-5-8-5-13l0-110c0-5 1-9 5-13 4-3 8-5 13-5l128 0 0-82c0-5 2-10 5-13 4-4 8-6 13-6 5 0 9 2 13 6l155 155c4 4 6 8 6 13z m100-101l0 202c0 22-8 42-24 58-16 16-35 24-58 24l-91 0c-3 0-5-1-7-3-2-2-2-4-2-6 0-1-1-3-1-6 0-3 0-6 0-8 0-2 1-4 1-6 0-3 1-5 3-6 1-1 3-2 6-2l91 0c13 0 23-4 32-13 9-9 14-20 14-32l0-202c0-12-5-23-14-32-9-9-19-13-32-13l-89 0-3-1-4 0-2-2-2-3 0-3c0-1-1-3-1-6 0-3 0-6 0-8 0-2 1-4 1-6 0-3 1-5 3-6 1-1 3-2 6-2l91 0c23 0 42 8 58 24 16 16 24 36 24 58z"/>
    </symbol>
  
    <symbol id="lcx-ico-logout" viewBox="0 0 512 512">
      <path d="m201 411c0 1 0 3 0 6 1 3 1 6 1 8-1 2-1 4-1 6-1 3-2 5-3 6-2 1-4 2-6 2l-91 0c-23 0-42-8-59-24-16-16-24-36-24-58l0-202c0-22 8-42 24-58 17-16 36-24 59-24l91 0c2 0 5 1 6 3 2 2 3 4 3 6 0 1 0 3 0 6 1 3 1 6 1 8-1 2-1 4-1 6-1 3-2 5-3 6-2 1-4 2-6 2l-91 0c-13 0-24 4-33 13-9 9-13 20-13 32l0 202c0 12 4 23 13 32 9 9 20 13 33 13l89 0 3 1 3 0 3 2 2 3z m265-155c0 5-2 9-5 13l-156 155c-3 4-7 6-12 6-5 0-10-2-13-6-4-3-6-8-6-13l0-82-128 0c-5 0-9-2-13-5-3-4-5-8-5-13l0-110c0-5 2-9 5-13 4-3 8-5 13-5l128 0 0-82c0-5 2-10 6-13 3-4 8-6 13-6 5 0 9 2 12 6l156 155c3 4 5 8 5 13z"/>
    </symbol>
  
    <symbol id="lcx-ico-more" viewBox="0 0 512 512">
      <path d="m402 201c0 5-2 9-5 13l-128 128c-4 4-8 5-13 5-5 0-9-1-13-5l-128-128c-3-4-5-8-5-13 0-5 2-9 5-13 4-3 8-5 13-5l256 0c5 0 9 2 13 5 3 4 5 8 5 13z"/>
    </symbol>
  
    <symbol id="lcx-ico-settings" viewBox="0 0 512 512">
      <path d="m329 256c0-20-7-37-21-52-15-14-32-21-52-21-20 0-37 7-52 21-14 15-21 32-21 52 0 20 7 37 21 52 15 14 32 21 52 21 20 0 37-7 52-21 14-15 21-32 21-52z m146-31l0 63c0 3 0 5-2 7-1 2-3 3-6 4l-52 8c-4 10-8 19-12 26 7 9 17 22 31 39 2 2 3 5 3 7 0 3-1 5-3 7-5 7-14 17-28 31-14 13-23 20-27 20-2 0-5-1-7-3l-40-31c-8 5-17 8-26 11-3 26-6 44-8 53-1 6-5 8-10 8l-64 0c-2 0-5 0-7-2-2-2-3-4-3-6l-8-53c-9-3-18-6-26-10l-40 30c-2 2-4 3-7 3-3 0-5-1-7-3-24-22-40-38-47-48-2-2-2-4-2-7 0-2 0-4 2-6 3-4 8-11 14-19 7-9 12-16 16-21-5-9-9-19-12-28l-52-8c-3 0-5-1-6-3-2-2-2-4-2-7l0-63c0-3 0-5 2-7 1-2 3-3 5-4l53-8c3-8 7-17 12-26-8-11-18-24-31-39-2-3-3-5-3-7 0-2 1-4 3-7 5-7 14-17 28-30 14-14 23-21 27-21 2 0 5 1 7 3l40 31c8-5 17-8 26-11 3-26 6-44 8-53 1-6 5-8 10-8l64 0c2 0 5 0 7 2 2 2 3 4 3 6l8 53c9 3 18 6 26 10l40-30c2-2 4-3 7-3 3 0 5 1 7 3 25 23 41 39 47 49 2 1 2 3 2 6 0 2 0 4-2 6-3 4-8 11-14 19-7 9-12 16-16 21 5 9 9 18 12 28l52 8c3 0 5 1 6 3 2 2 2 4 2 7z"/>
    </symbol>
  
</svg>
